<svg width="289" height="71" viewBox="0 0 289 71" fill="none" xmlns="http://www.w3.org/2000/svg">
<path fill-rule="evenodd" clip-rule="evenodd" d="M289 2H0V0H289V2ZM289 69H0V71H289V69Z" fill="#4F351E"/>
<path d="M23.7812 36.9531C23.8281 36.7891 23.8711 36.5859 23.9102 36.3438C23.9492 36.1016 23.9844 35.8008 24.0156 35.4414C24.0469 35.082 24.0703 34.6562 24.0859 34.1641C24.1016 33.6641 24.1094 33.082 24.1094 32.418V24.7891C24.1094 24.125 24.1016 23.5469 24.0859 23.0547C24.0703 22.5547 24.0469 22.125 24.0156 21.7656C23.9844 21.3984 23.9492 21.0938 23.9102 20.8516C23.8711 20.6094 23.8281 20.4062 23.7812 20.2422V20.1953H26.582V20.2422C26.5352 20.4062 26.4883 20.6094 26.4414 20.8516C26.4023 21.0938 26.3672 21.3984 26.3359 21.7656C26.3125 22.125 26.2891 22.5547 26.2656 23.0547C26.25 23.5469 26.2422 24.125 26.2422 24.7891V32.418C26.2422 33.082 26.25 33.6641 26.2656 34.1641C26.2891 34.6562 26.3125 35.082 26.3359 35.4414C26.3672 35.8008 26.4023 36.1016 26.4414 36.3438C26.4883 36.5859 26.5352 36.7891 26.582 36.9531V37H23.7812V36.9531Z" fill="#4F351E"/>
<path d="M31.1055 20.1953V20.2422C31.0898 20.2812 31.0781 20.3398 31.0703 20.418C31.0625 20.4961 31.0586 20.5664 31.0586 20.6289C31.0586 20.8711 31.0898 21.1406 31.1523 21.4375C31.2227 21.7266 31.3516 22.0898 31.5391 22.5273L36.7305 34.2344L41.7461 22.6211C41.8633 22.332 41.9883 22.0156 42.1211 21.6719C42.2539 21.3281 42.3203 20.9805 42.3203 20.6289C42.3203 20.5352 42.3125 20.457 42.2969 20.3945C42.2812 20.3242 42.2656 20.2734 42.25 20.2422V20.1953H44.6523V20.2422C44.5039 20.3906 44.3242 20.6562 44.1133 21.0391C43.9023 21.4219 43.6719 21.8945 43.4219 22.457L36.707 37.3633H35.7695L29.4062 23.0312C29.2578 22.6953 29.1016 22.3711 28.9375 22.0586C28.7812 21.7461 28.6328 21.4648 28.4922 21.2148C28.3516 20.957 28.2266 20.7422 28.1172 20.5703C28.0078 20.3984 27.9336 20.2891 27.8945 20.2422V20.1953H31.1055Z" fill="#4F351E"/>
<path d="M56.8867 37V36.9531C56.9023 36.9141 56.9141 36.8555 56.9219 36.7773C56.9297 36.6992 56.9336 36.6289 56.9336 36.5664C56.9336 36.3242 56.8984 36.0586 56.8281 35.7695C56.7656 35.4727 56.6406 35.1055 56.4531 34.668L55.0352 31.4805C54.5977 31.4648 54.0156 31.457 53.2891 31.457C52.5625 31.457 51.7773 31.457 50.9336 31.457C50.3164 31.457 49.7188 31.457 49.1406 31.457C48.5703 31.457 48.0547 31.4648 47.5938 31.4805L46.2461 34.5742C46.1289 34.8633 46.0039 35.1797 45.8711 35.5234C45.7383 35.8672 45.6719 36.2148 45.6719 36.5664C45.6719 36.668 45.6797 36.7539 45.6953 36.8242C45.7109 36.8867 45.7266 36.9297 45.7422 36.9531V37H43.3516V36.9531C43.4922 36.8047 43.668 36.543 43.8789 36.168C44.0898 35.7852 44.3203 35.3086 44.5703 34.7383L51.2852 19.8438H52.2227L58.5859 34.1641C58.7344 34.5 58.8867 34.8281 59.043 35.1484C59.207 35.4609 59.3594 35.7422 59.5 35.9922C59.6406 36.2422 59.7656 36.4531 59.875 36.625C59.9844 36.7969 60.0586 36.9062 60.0977 36.9531V37H56.8867ZM49.293 30.4492C49.7461 30.4492 50.2109 30.4492 50.6875 30.4492C51.1641 30.4414 51.6289 30.4375 52.082 30.4375C52.543 30.4297 52.9844 30.4258 53.4062 30.4258C53.8281 30.418 54.2109 30.4102 54.5547 30.4023L51.2617 22.9609L48.0273 30.4492H49.293Z" fill="#4F351E"/>
<path d="M62.207 20.1953L74.2773 33.0391V24.7891C74.2773 24.125 74.2695 23.5469 74.2539 23.0547C74.2383 22.5547 74.2148 22.125 74.1836 21.7656C74.1523 21.3984 74.1133 21.0938 74.0664 20.8516C74.0273 20.6094 73.9844 20.4062 73.9375 20.2422V20.1953H76.0234V20.2422C75.9766 20.4062 75.9336 20.6094 75.8945 20.8516C75.8555 21.0938 75.8203 21.3984 75.7891 21.7656C75.7578 22.125 75.7344 22.5547 75.7188 23.0547C75.7031 23.5469 75.6953 24.125 75.6953 24.7891V37.2344H75.2852L63.2148 24.4023V32.418C63.2148 33.082 63.2227 33.6641 63.2383 34.1641C63.2539 34.6562 63.2773 35.082 63.3086 35.4414C63.3398 35.8008 63.375 36.1016 63.4141 36.3438C63.4531 36.5859 63.4961 36.7891 63.543 36.9531V37H61.457V36.9531C61.5039 36.7891 61.5469 36.5859 61.5859 36.3438C61.6328 36.1016 61.6719 35.8008 61.7031 35.4414C61.7344 35.082 61.7578 34.6562 61.7734 34.1641C61.7891 33.6641 61.7969 33.082 61.7969 32.418V24.7891C61.7969 24.125 61.7891 23.5469 61.7734 23.0547C61.7578 22.5547 61.7344 22.125 61.7031 21.7656C61.6719 21.3984 61.6328 21.0938 61.5859 20.8516C61.5469 20.6094 61.5039 20.4062 61.457 20.2422V20.1953H62.207Z" fill="#4F351E"/>
<path d="M88.293 35.9688H93.3086C94.2227 35.9688 95.0664 35.9297 95.8398 35.8516C96.6211 35.7734 97.3008 35.6836 97.8789 35.582C98.5508 35.4727 99.1641 35.3438 99.7188 35.1953L99.1445 37.0938C99.0508 37.0859 98.9102 37.0781 98.7227 37.0703C98.5352 37.0625 98.3242 37.0547 98.0898 37.0469C97.8633 37.0391 97.6211 37.0312 97.3633 37.0234C97.1133 37.0234 96.875 37.0195 96.6484 37.0117C96.4219 37.0117 96.2188 37.0078 96.0391 37C95.8672 37 95.7422 37 95.6641 37H85.082V36.707L96.4961 21.2266H92.0898C91.168 21.2266 90.3164 21.2695 89.5352 21.3555C88.7617 21.4336 88.0859 21.5195 87.5078 21.6133C86.8359 21.7305 86.2266 21.8594 85.6797 22L86.4883 20.1016C86.582 20.1094 86.7227 20.1172 86.9102 20.125C87.1055 20.1328 87.3164 20.1406 87.543 20.1484C87.7773 20.1562 88.0195 20.1641 88.2695 20.1719C88.5195 20.1719 88.7578 20.1758 88.9844 20.1836C89.2109 20.1836 89.4102 20.1875 89.582 20.1953C89.7617 20.1953 89.8906 20.1953 89.9688 20.1953H99.7188V20.5117L88.293 35.9688Z" fill="#4F351E"/>
<path d="M113.535 37V36.9531C113.551 36.9141 113.562 36.8555 113.57 36.7773C113.578 36.6992 113.582 36.6289 113.582 36.5664C113.582 36.3242 113.547 36.0586 113.477 35.7695C113.414 35.4727 113.289 35.1055 113.102 34.668L111.684 31.4805C111.246 31.4648 110.664 31.457 109.938 31.457C109.211 31.457 108.426 31.457 107.582 31.457C106.965 31.457 106.367 31.457 105.789 31.457C105.219 31.457 104.703 31.4648 104.242 31.4805L102.895 34.5742C102.777 34.8633 102.652 35.1797 102.52 35.5234C102.387 35.8672 102.32 36.2148 102.32 36.5664C102.32 36.668 102.328 36.7539 102.344 36.8242C102.359 36.8867 102.375 36.9297 102.391 36.9531V37H100V36.9531C100.141 36.8047 100.316 36.543 100.527 36.168C100.738 35.7852 100.969 35.3086 101.219 34.7383L107.934 19.8438H108.871L115.234 34.1641C115.383 34.5 115.535 34.8281 115.691 35.1484C115.855 35.4609 116.008 35.7422 116.148 35.9922C116.289 36.2422 116.414 36.4531 116.523 36.625C116.633 36.7969 116.707 36.9062 116.746 36.9531V37H113.535ZM105.941 30.4492C106.395 30.4492 106.859 30.4492 107.336 30.4492C107.812 30.4414 108.277 30.4375 108.73 30.4375C109.191 30.4297 109.633 30.4258 110.055 30.4258C110.477 30.418 110.859 30.4102 111.203 30.4023L107.91 22.9609L104.676 30.4492H105.941Z" fill="#4F351E"/>
<path d="M118.855 20.1953L130.926 33.0391V24.7891C130.926 24.125 130.918 23.5469 130.902 23.0547C130.887 22.5547 130.863 22.125 130.832 21.7656C130.801 21.3984 130.762 21.0938 130.715 20.8516C130.676 20.6094 130.633 20.4062 130.586 20.2422V20.1953H132.672V20.2422C132.625 20.4062 132.582 20.6094 132.543 20.8516C132.504 21.0938 132.469 21.3984 132.438 21.7656C132.406 22.125 132.383 22.5547 132.367 23.0547C132.352 23.5469 132.344 24.125 132.344 24.7891V37.2344H131.934L119.863 24.4023V32.418C119.863 33.082 119.871 33.6641 119.887 34.1641C119.902 34.6562 119.926 35.082 119.957 35.4414C119.988 35.8008 120.023 36.1016 120.062 36.3438C120.102 36.5859 120.145 36.7891 120.191 36.9531V37H118.105V36.9531C118.152 36.7891 118.195 36.5859 118.234 36.3438C118.281 36.1016 118.32 35.8008 118.352 35.4414C118.383 35.082 118.406 34.6562 118.422 34.1641C118.438 33.6641 118.445 33.082 118.445 32.418V24.7891C118.445 24.125 118.438 23.5469 118.422 23.0547C118.406 22.5547 118.383 22.125 118.352 21.7656C118.32 21.3984 118.281 21.0938 118.234 20.8516C118.195 20.6094 118.152 20.4062 118.105 20.2422V20.1953H118.855Z" fill="#4F351E"/>
<path d="M135.941 20.1953C136.918 20.1953 137.887 20.1914 138.848 20.1836C139.816 20.1758 140.703 20.168 141.508 20.1602C142.312 20.1445 143 20.125 143.57 20.1016C144.141 20.0781 144.527 20.0469 144.73 20.0078L144.156 21.5664C143.898 21.4961 143.598 21.4336 143.254 21.3789C142.957 21.332 142.594 21.2891 142.164 21.25C141.742 21.2031 141.254 21.1797 140.699 21.1797C140.512 21.1797 140.285 21.1875 140.02 21.2031C139.762 21.2109 139.512 21.2227 139.27 21.2383C138.988 21.2539 138.703 21.2695 138.414 21.2852V27.6836C139.219 27.6758 139.945 27.6523 140.594 27.6133C141.242 27.5742 141.793 27.5352 142.246 27.4961C142.777 27.4492 143.246 27.3945 143.652 27.332L143.289 29.0312C142.75 28.9609 142.199 28.8945 141.637 28.832C141.152 28.7773 140.625 28.7305 140.055 28.6914C139.484 28.6445 138.938 28.6211 138.414 28.6211V35.9688C139.336 35.9688 140.184 35.9297 140.957 35.8516C141.73 35.7734 142.406 35.6836 142.984 35.582C143.656 35.4727 144.27 35.3438 144.824 35.1953L144.484 37.0938C144.391 37.0859 144.25 37.0781 144.062 37.0703C143.875 37.0625 143.664 37.0547 143.43 37.0469C143.203 37.0391 142.961 37.0312 142.703 37.0234C142.453 37.0234 142.215 37.0195 141.988 37.0117C141.762 37.0117 141.559 37.0078 141.379 37C141.207 37 141.082 37 141.004 37H135.941V36.9531C135.988 36.7891 136.031 36.5859 136.07 36.3438C136.117 36.1016 136.156 35.8008 136.188 35.4414C136.219 35.082 136.242 34.6562 136.258 34.1641C136.273 33.6641 136.281 33.082 136.281 32.418V24.7891C136.281 24.125 136.273 23.5469 136.258 23.0547C136.242 22.5547 136.219 22.125 136.188 21.7656C136.156 21.3984 136.117 21.0938 136.07 20.8516C136.031 20.6094 135.988 20.4062 135.941 20.2422V20.1953Z" fill="#4F351E"/>
<path d="M152.125 21.2266C151.203 21.2266 150.371 21.2695 149.629 21.3555C148.887 21.4336 148.246 21.5195 147.707 21.6133C147.082 21.7305 146.523 21.8594 146.031 22L146.371 20.1016C146.465 20.1094 146.605 20.1172 146.793 20.125C146.98 20.1328 147.188 20.1406 147.414 20.1484C147.648 20.1562 147.891 20.1641 148.141 20.1719C148.398 20.1719 148.641 20.1758 148.867 20.1836C149.094 20.1836 149.293 20.1875 149.465 20.1953C149.645 20.1953 149.773 20.1953 149.852 20.1953H156.543C156.621 20.1953 156.746 20.1953 156.918 20.1953C157.098 20.1875 157.301 20.1836 157.527 20.1836C157.754 20.1758 157.992 20.1719 158.242 20.1719C158.5 20.1641 158.742 20.1562 158.969 20.1484C159.203 20.1406 159.414 20.1328 159.602 20.125C159.789 20.1172 159.93 20.1094 160.023 20.1016L160.363 22C159.863 21.8594 159.301 21.7305 158.676 21.6133C158.137 21.5195 157.496 21.4336 156.754 21.3555C156.012 21.2695 155.18 21.2266 154.258 21.2266V32.418C154.258 33.082 154.266 33.6641 154.281 34.1641C154.305 34.6562 154.328 35.082 154.352 35.4414C154.383 35.8008 154.418 36.1016 154.457 36.3438C154.504 36.5859 154.551 36.7891 154.598 36.9531V37H151.797V36.9531C151.844 36.7891 151.887 36.5859 151.926 36.3438C151.965 36.1016 152 35.8008 152.031 35.4414C152.062 35.082 152.086 34.6562 152.102 34.1641C152.117 33.6641 152.125 33.082 152.125 32.418V21.2266Z" fill="#4F351E"/>
<path d="M168.414 36.9531C168.5 36.8281 168.598 36.6445 168.707 36.4023C168.816 36.1523 168.902 35.8398 168.965 35.4648C169.051 34.918 169.145 34.3047 169.246 33.625C169.355 32.9375 169.465 32.2188 169.574 31.4688C169.691 30.7188 169.805 29.9531 169.914 29.1719C170.031 28.3828 170.141 27.6094 170.242 26.8516C170.352 26.0859 170.453 25.3516 170.547 24.6484C170.648 23.9375 170.738 23.2891 170.816 22.7031C170.895 22.1172 170.957 21.6094 171.004 21.1797C171.059 20.7422 171.098 20.4141 171.121 20.1953H172.609L179.98 33.9766L187.293 20.1953H188.406L190.328 34.1172C190.383 34.5547 190.441 34.9297 190.504 35.2422C190.566 35.5547 190.629 35.8242 190.691 36.0508C190.754 36.2695 190.812 36.4531 190.867 36.6016C190.93 36.7422 190.988 36.8594 191.043 36.9531V37H188.09V36.9531C188.129 36.8672 188.164 36.7266 188.195 36.5312C188.234 36.3359 188.254 36.1016 188.254 35.8281C188.254 35.7266 188.25 35.625 188.242 35.5234C188.234 35.4141 188.223 35.2969 188.207 35.1719L186.719 23.9453L179.805 36.9531L178.996 36.8594L172.035 23.8281C171.762 25.6797 171.523 27.3906 171.32 28.9609C171.234 29.6328 171.148 30.3047 171.062 30.9766C170.977 31.6406 170.898 32.2617 170.828 32.8398C170.766 33.418 170.715 33.9297 170.676 34.375C170.637 34.8125 170.617 35.1367 170.617 35.3477C170.617 35.6133 170.625 35.8477 170.641 36.0508C170.656 36.2539 170.672 36.4258 170.688 36.5664C170.711 36.7305 170.734 36.875 170.758 37H168.414V36.9531Z" fill="#4F351E"/>
<path d="M205.316 37V36.9531C205.332 36.9141 205.344 36.8555 205.352 36.7773C205.359 36.6992 205.363 36.6289 205.363 36.5664C205.363 36.3242 205.328 36.0586 205.258 35.7695C205.195 35.4727 205.07 35.1055 204.883 34.668L203.465 31.4805C203.027 31.4648 202.445 31.457 201.719 31.457C200.992 31.457 200.207 31.457 199.363 31.457C198.746 31.457 198.148 31.457 197.57 31.457C197 31.457 196.484 31.4648 196.023 31.4805L194.676 34.5742C194.559 34.8633 194.434 35.1797 194.301 35.5234C194.168 35.8672 194.102 36.2148 194.102 36.5664C194.102 36.668 194.109 36.7539 194.125 36.8242C194.141 36.8867 194.156 36.9297 194.172 36.9531V37H191.781V36.9531C191.922 36.8047 192.098 36.543 192.309 36.168C192.52 35.7852 192.75 35.3086 193 34.7383L199.715 19.8438H200.652L207.016 34.1641C207.164 34.5 207.316 34.8281 207.473 35.1484C207.637 35.4609 207.789 35.7422 207.93 35.9922C208.07 36.2422 208.195 36.4531 208.305 36.625C208.414 36.7969 208.488 36.9062 208.527 36.9531V37H205.316ZM197.723 30.4492C198.176 30.4492 198.641 30.4492 199.117 30.4492C199.594 30.4414 200.059 30.4375 200.512 30.4375C200.973 30.4297 201.414 30.4258 201.836 30.4258C202.258 30.418 202.641 30.4102 202.984 30.4023L199.691 22.9609L196.457 30.4492H197.723Z" fill="#4F351E"/>
<path d="M210.637 20.1953L222.707 33.0391V24.7891C222.707 24.125 222.699 23.5469 222.684 23.0547C222.668 22.5547 222.645 22.125 222.613 21.7656C222.582 21.3984 222.543 21.0938 222.496 20.8516C222.457 20.6094 222.414 20.4062 222.367 20.2422V20.1953H224.453V20.2422C224.406 20.4062 224.363 20.6094 224.324 20.8516C224.285 21.0938 224.25 21.3984 224.219 21.7656C224.188 22.125 224.164 22.5547 224.148 23.0547C224.133 23.5469 224.125 24.125 224.125 24.7891V37.2344H223.715L211.645 24.4023V32.418C211.645 33.082 211.652 33.6641 211.668 34.1641C211.684 34.6562 211.707 35.082 211.738 35.4414C211.77 35.8008 211.805 36.1016 211.844 36.3438C211.883 36.5859 211.926 36.7891 211.973 36.9531V37H209.887V36.9531C209.934 36.7891 209.977 36.5859 210.016 36.3438C210.062 36.1016 210.102 35.8008 210.133 35.4414C210.164 35.082 210.188 34.6562 210.203 34.1641C210.219 33.6641 210.227 33.082 210.227 32.418V24.7891C210.227 24.125 210.219 23.5469 210.203 23.0547C210.188 22.5547 210.164 22.125 210.133 21.7656C210.102 21.3984 210.062 21.0938 210.016 20.8516C209.977 20.6094 209.934 20.4062 209.887 20.2422V20.1953H210.637Z" fill="#4F351E"/>
<path d="M242.512 35.0312C242.512 35.1172 242.5 35.207 242.477 35.3008C242.461 35.3945 242.418 35.4727 242.348 35.5352C241.996 35.8008 241.613 36.0469 241.199 36.2734C240.793 36.4922 240.352 36.6836 239.875 36.8477C239.398 37.0117 238.883 37.1367 238.328 37.2227C237.781 37.3164 237.191 37.3633 236.559 37.3633C235.137 37.3633 233.84 37.1562 232.668 36.7422C231.496 36.3203 230.488 35.7266 229.645 34.9609C228.809 34.1953 228.16 33.2773 227.699 32.207C227.238 31.1289 227.008 29.9336 227.008 28.6211C227.008 27.8789 227.102 27.1484 227.289 26.4297C227.484 25.7109 227.766 25.0273 228.133 24.3789C228.5 23.7305 228.953 23.1367 229.492 22.5977C230.031 22.0508 230.645 21.5781 231.332 21.1797C232.027 20.7812 232.789 20.4727 233.617 20.2539C234.453 20.0273 235.355 19.9141 236.324 19.9141C236.699 19.9141 237.082 19.9336 237.473 19.9727C237.863 20.0039 238.25 20.0547 238.633 20.125C239.016 20.1875 239.383 20.2656 239.734 20.3594C240.094 20.4531 240.434 20.5586 240.754 20.6758L241.551 22.8438L241.457 22.8906C241.152 22.6172 240.801 22.3633 240.402 22.1289C240.004 21.8945 239.578 21.6914 239.125 21.5195C238.672 21.3477 238.195 21.2148 237.695 21.1211C237.203 21.0195 236.703 20.9688 236.195 20.9688C235.211 20.9688 234.309 21.125 233.488 21.4375C232.668 21.7422 231.961 22.1875 231.367 22.7734C230.781 23.3594 230.324 24.0781 229.996 24.9297C229.668 25.7812 229.504 26.75 229.504 27.8359C229.504 29.0312 229.66 30.1406 229.973 31.1641C230.285 32.1875 230.75 33.0742 231.367 33.8242C231.984 34.5742 232.754 35.1641 233.676 35.5938C234.605 36.0156 235.688 36.2266 236.922 36.2266C237.469 36.2266 237.957 36.1836 238.387 36.0977C238.816 36.0117 239.18 35.9062 239.477 35.7812C239.773 35.6484 239.996 35.5078 240.145 35.3594C240.301 35.2031 240.379 35.0625 240.379 34.9375V34.4805C240.379 33.9336 240.371 33.4609 240.355 33.0625C240.34 32.6641 240.316 32.3203 240.285 32.0312C240.254 31.7344 240.219 31.4805 240.18 31.2695C240.141 31.0586 240.094 30.8633 240.039 30.6836V30.6367H242.852V30.6836C242.805 30.8477 242.758 31.043 242.711 31.2695C242.672 31.4883 242.637 31.75 242.605 32.0547C242.574 32.3594 242.551 32.7188 242.535 33.1328C242.52 33.5391 242.512 34.0117 242.512 34.5508V35.0312Z" fill="#4F351E"/>
<path d="M245.641 36.9531C245.688 36.7891 245.73 36.5859 245.77 36.3438C245.809 36.1016 245.844 35.8008 245.875 35.4414C245.906 35.082 245.93 34.6562 245.945 34.1641C245.961 33.6641 245.969 33.082 245.969 32.418V24.7891C245.969 24.125 245.961 23.5469 245.945 23.0547C245.93 22.5547 245.906 22.125 245.875 21.7656C245.844 21.3984 245.809 21.0938 245.77 20.8516C245.73 20.6094 245.688 20.4062 245.641 20.2422V20.1953H248.441V20.2422C248.395 20.4062 248.348 20.6094 248.301 20.8516C248.262 21.0938 248.227 21.3984 248.195 21.7656C248.172 22.125 248.148 22.5547 248.125 23.0547C248.109 23.5469 248.102 24.125 248.102 24.7891V32.418C248.102 33.082 248.109 33.6641 248.125 34.1641C248.148 34.6562 248.172 35.082 248.195 35.4414C248.227 35.8008 248.262 36.1016 248.301 36.3438C248.348 36.5859 248.395 36.7891 248.441 36.9531V37H245.641V36.9531Z" fill="#4F351E"/>
<path d="M254.383 35.9688C255.305 35.9688 256.152 35.9297 256.926 35.8516C257.699 35.7734 258.375 35.6836 258.953 35.582C259.625 35.4727 260.238 35.3438 260.793 35.1953L260.453 37.0938C260.359 37.0859 260.219 37.0781 260.031 37.0703C259.844 37.0625 259.633 37.0547 259.398 37.0469C259.172 37.0391 258.93 37.0312 258.672 37.0234C258.422 37.0234 258.184 37.0195 257.957 37.0117C257.73 37.0117 257.527 37.0078 257.348 37C257.176 37 257.051 37 256.973 37H251.91V36.9531C251.957 36.7891 252 36.5859 252.039 36.3438C252.086 36.1016 252.125 35.8008 252.156 35.4414C252.188 35.082 252.211 34.6562 252.227 34.1641C252.242 33.6641 252.25 33.082 252.25 32.418V24.7891C252.25 24.125 252.242 23.5469 252.227 23.0547C252.211 22.5547 252.188 22.125 252.156 21.7656C252.125 21.3984 252.086 21.0938 252.039 20.8516C252 20.6094 251.957 20.4062 251.91 20.2422V20.1953H254.723V20.2422C254.676 20.4062 254.629 20.6094 254.582 20.8516C254.543 21.0938 254.508 21.3984 254.477 21.7656C254.453 22.125 254.43 22.5547 254.406 23.0547C254.391 23.5469 254.383 24.125 254.383 24.7891V35.9688Z" fill="#4F351E"/>
<path d="M263.055 36.9531C263.102 36.7891 263.145 36.5859 263.184 36.3438C263.223 36.1016 263.258 35.8008 263.289 35.4414C263.32 35.082 263.344 34.6562 263.359 34.1641C263.375 33.6641 263.383 33.082 263.383 32.418V24.7891C263.383 24.125 263.375 23.5469 263.359 23.0547C263.344 22.5547 263.32 22.125 263.289 21.7656C263.258 21.3984 263.223 21.0938 263.184 20.8516C263.145 20.6094 263.102 20.4062 263.055 20.2422V20.1953H265.855V20.2422C265.809 20.4062 265.762 20.6094 265.715 20.8516C265.676 21.0938 265.641 21.3984 265.609 21.7656C265.586 22.125 265.562 22.5547 265.539 23.0547C265.523 23.5469 265.516 24.125 265.516 24.7891V32.418C265.516 33.082 265.523 33.6641 265.539 34.1641C265.562 34.6562 265.586 35.082 265.609 35.4414C265.641 35.8008 265.676 36.1016 265.715 36.3438C265.762 36.5859 265.809 36.7891 265.855 36.9531V37H263.055V36.9531Z" fill="#4F351E"/>
<path d="M88.852 56.084C88.1147 56.084 87.4333 55.9627 86.808 55.72C86.1827 55.468 85.6413 55.118 85.184 54.67C84.7267 54.222 84.3673 53.6947 84.106 53.088C83.854 52.4813 83.728 51.8187 83.728 51.1C83.728 50.3813 83.854 49.7187 84.106 49.112C84.3673 48.5053 84.7267 47.978 85.184 47.53C85.6507 47.082 86.1967 46.7367 86.822 46.494C87.4473 46.242 88.1287 46.116 88.866 46.116C89.5753 46.116 90.2427 46.2373 90.868 46.48C91.4933 46.7133 92.0207 47.068 92.45 47.544L91.792 48.202C91.3907 47.7913 90.9473 47.4973 90.462 47.32C89.9767 47.1333 89.454 47.04 88.894 47.04C88.306 47.04 87.76 47.1427 87.256 47.348C86.752 47.544 86.3133 47.8287 85.94 48.202C85.5667 48.566 85.2727 48.9953 85.058 49.49C84.8527 49.9753 84.75 50.512 84.75 51.1C84.75 51.688 84.8527 52.2293 85.058 52.724C85.2727 53.2093 85.5667 53.6387 85.94 54.012C86.3133 54.376 86.752 54.6607 87.256 54.866C87.76 55.062 88.306 55.16 88.894 55.16C89.454 55.16 89.9767 55.0667 90.462 54.88C90.9473 54.6933 91.3907 54.3947 91.792 53.984L92.45 54.642C92.0207 55.118 91.4933 55.4773 90.868 55.72C90.2427 55.9627 89.5707 56.084 88.852 56.084Z" fill="#4F351E"/>
<path d="M98.7374 56.084C98.0001 56.084 97.3141 55.9627 96.6794 55.72C96.0541 55.468 95.5081 55.118 95.0414 54.67C94.5841 54.2127 94.2248 53.6853 93.9634 53.088C93.7114 52.4813 93.5854 51.8187 93.5854 51.1C93.5854 50.3813 93.7114 49.7233 93.9634 49.126C94.2248 48.5193 94.5841 47.992 95.0414 47.544C95.5081 47.0867 96.0541 46.7367 96.6794 46.494C97.3048 46.242 97.9908 46.116 98.7374 46.116C99.4748 46.116 100.156 46.242 100.781 46.494C101.407 46.7367 101.948 47.082 102.405 47.53C102.872 47.978 103.231 48.5053 103.483 49.112C103.745 49.7187 103.875 50.3813 103.875 51.1C103.875 51.8187 103.745 52.4813 103.483 53.088C103.231 53.6947 102.872 54.222 102.405 54.67C101.948 55.118 101.407 55.468 100.781 55.72C100.156 55.9627 99.4748 56.084 98.7374 56.084ZM98.7374 55.16C99.3254 55.16 99.8668 55.062 100.361 54.866C100.865 54.6607 101.299 54.376 101.663 54.012C102.037 53.6387 102.326 53.2093 102.531 52.724C102.737 52.2293 102.839 51.688 102.839 51.1C102.839 50.512 102.737 49.9753 102.531 49.49C102.326 48.9953 102.037 48.566 101.663 48.202C101.299 47.8287 100.865 47.544 100.361 47.348C99.8668 47.1427 99.3254 47.04 98.7374 47.04C98.1494 47.04 97.6034 47.1427 97.0994 47.348C96.5954 47.544 96.1568 47.8287 95.7834 48.202C95.4194 48.566 95.1301 48.9953 94.9154 49.49C94.7101 49.9753 94.6074 50.512 94.6074 51.1C94.6074 51.6787 94.7101 52.2153 94.9154 52.71C95.1301 53.2047 95.4194 53.6387 95.7834 54.012C96.1568 54.376 96.5954 54.6607 97.0994 54.866C97.6034 55.062 98.1494 55.16 98.7374 55.16Z" fill="#4F351E"/>
<path d="M104.493 56L108.973 46.2H109.995L114.475 56H113.383L109.267 46.802H109.687L105.571 56H104.493ZM106.257 53.382L106.565 52.542H112.263L112.571 53.382H106.257Z" fill="#4F351E"/>
<path d="M120.215 56.084C119.478 56.084 118.797 55.9627 118.171 55.72C117.546 55.468 117.005 55.118 116.547 54.67C116.09 54.222 115.731 53.6947 115.469 53.088C115.217 52.4813 115.091 51.8187 115.091 51.1C115.091 50.3813 115.217 49.7187 115.469 49.112C115.731 48.5053 116.09 47.978 116.547 47.53C117.014 47.082 117.56 46.7367 118.185 46.494C118.811 46.242 119.492 46.116 120.229 46.116C120.939 46.116 121.606 46.2373 122.231 46.48C122.857 46.7133 123.384 47.068 123.813 47.544L123.155 48.202C122.754 47.7913 122.311 47.4973 121.825 47.32C121.34 47.1333 120.817 47.04 120.257 47.04C119.669 47.04 119.123 47.1427 118.619 47.348C118.115 47.544 117.677 47.8287 117.303 48.202C116.93 48.566 116.636 48.9953 116.421 49.49C116.216 49.9753 116.113 50.512 116.113 51.1C116.113 51.688 116.216 52.2293 116.421 52.724C116.636 53.2093 116.93 53.6387 117.303 54.012C117.677 54.376 118.115 54.6607 118.619 54.866C119.123 55.062 119.669 55.16 120.257 55.16C120.817 55.16 121.34 55.0667 121.825 54.88C122.311 54.6933 122.754 54.3947 123.155 53.984L123.813 54.642C123.384 55.118 122.857 55.4773 122.231 55.72C121.606 55.9627 120.934 56.084 120.215 56.084Z" fill="#4F351E"/>
<path d="M133.19 46.2H134.212V56H133.19V46.2ZM127.058 56H126.022V46.2H127.058V56ZM133.288 51.478H126.946V50.568H133.288V51.478Z" fill="#4F351E"/>
<path d="M141.075 56V46.2H144.743C145.573 46.2 146.287 46.3353 146.885 46.606C147.482 46.8673 147.939 47.25 148.257 47.754C148.583 48.2487 148.747 48.8507 148.747 49.56C148.747 50.2507 148.583 50.848 148.257 51.352C147.939 51.8467 147.482 52.2293 146.885 52.5C146.287 52.7707 145.573 52.906 144.743 52.906H141.649L142.111 52.416V56H141.075ZM142.111 52.5L141.649 51.996H144.715C145.695 51.996 146.437 51.786 146.941 51.366C147.454 50.9367 147.711 50.3347 147.711 49.56C147.711 48.776 147.454 48.1693 146.941 47.74C146.437 47.3107 145.695 47.096 144.715 47.096H141.649L142.111 46.606V52.5Z" fill="#4F351E"/>
<path d="M151.911 50.582H157.091V51.464H151.911V50.582ZM152.023 55.104H157.917V56H150.987V46.2H157.707V47.096H152.023V55.104Z" fill="#4F351E"/>
<path d="M163.054 56.084C162.326 56.084 161.626 55.9673 160.954 55.734C160.291 55.4913 159.778 55.1833 159.414 54.81L159.82 54.012C160.165 54.348 160.627 54.6327 161.206 54.866C161.794 55.09 162.41 55.202 163.054 55.202C163.67 55.202 164.169 55.1273 164.552 54.978C164.944 54.8193 165.229 54.6093 165.406 54.348C165.593 54.0867 165.686 53.7973 165.686 53.48C165.686 53.0973 165.574 52.7893 165.35 52.556C165.135 52.3227 164.851 52.1407 164.496 52.01C164.141 51.87 163.749 51.7487 163.32 51.646C162.891 51.5433 162.461 51.436 162.032 51.324C161.603 51.2027 161.206 51.044 160.842 50.848C160.487 50.652 160.198 50.3953 159.974 50.078C159.759 49.7513 159.652 49.3267 159.652 48.804C159.652 48.3187 159.778 47.8753 160.03 47.474C160.291 47.0633 160.688 46.7367 161.22 46.494C161.752 46.242 162.433 46.116 163.264 46.116C163.815 46.116 164.361 46.1953 164.902 46.354C165.443 46.5033 165.91 46.7133 166.302 46.984L165.952 47.81C165.532 47.53 165.084 47.3247 164.608 47.194C164.141 47.0633 163.689 46.998 163.25 46.998C162.662 46.998 162.177 47.0773 161.794 47.236C161.411 47.3947 161.127 47.6093 160.94 47.88C160.763 48.1413 160.674 48.44 160.674 48.776C160.674 49.1587 160.781 49.4667 160.996 49.7C161.22 49.9333 161.509 50.1153 161.864 50.246C162.228 50.3767 162.625 50.4933 163.054 50.596C163.483 50.6987 163.908 50.8107 164.328 50.932C164.757 51.0533 165.149 51.212 165.504 51.408C165.868 51.5947 166.157 51.8467 166.372 52.164C166.596 52.4813 166.708 52.8967 166.708 53.41C166.708 53.886 166.577 54.3293 166.316 54.74C166.055 55.1413 165.653 55.468 165.112 55.72C164.58 55.9627 163.894 56.084 163.054 56.084Z" fill="#4F351E"/>
<path d="M171.667 56.084C170.939 56.084 170.239 55.9673 169.567 55.734C168.904 55.4913 168.391 55.1833 168.027 54.81L168.433 54.012C168.778 54.348 169.24 54.6327 169.819 54.866C170.407 55.09 171.023 55.202 171.667 55.202C172.283 55.202 172.782 55.1273 173.165 54.978C173.557 54.8193 173.842 54.6093 174.019 54.348C174.206 54.0867 174.299 53.7973 174.299 53.48C174.299 53.0973 174.187 52.7893 173.963 52.556C173.748 52.3227 173.464 52.1407 173.109 52.01C172.754 51.87 172.362 51.7487 171.933 51.646C171.504 51.5433 171.074 51.436 170.645 51.324C170.216 51.2027 169.819 51.044 169.455 50.848C169.1 50.652 168.811 50.3953 168.587 50.078C168.372 49.7513 168.265 49.3267 168.265 48.804C168.265 48.3187 168.391 47.8753 168.643 47.474C168.904 47.0633 169.301 46.7367 169.833 46.494C170.365 46.242 171.046 46.116 171.877 46.116C172.428 46.116 172.974 46.1953 173.515 46.354C174.056 46.5033 174.523 46.7133 174.915 46.984L174.565 47.81C174.145 47.53 173.697 47.3247 173.221 47.194C172.754 47.0633 172.302 46.998 171.863 46.998C171.275 46.998 170.79 47.0773 170.407 47.236C170.024 47.3947 169.74 47.6093 169.553 47.88C169.376 48.1413 169.287 48.44 169.287 48.776C169.287 49.1587 169.394 49.4667 169.609 49.7C169.833 49.9333 170.122 50.1153 170.477 50.246C170.841 50.3767 171.238 50.4933 171.667 50.596C172.096 50.6987 172.521 50.8107 172.941 50.932C173.37 51.0533 173.762 51.212 174.117 51.408C174.481 51.5947 174.77 51.8467 174.985 52.164C175.209 52.4813 175.321 52.8967 175.321 53.41C175.321 53.886 175.19 54.3293 174.929 54.74C174.668 55.1413 174.266 55.468 173.725 55.72C173.193 55.9627 172.507 56.084 171.667 56.084Z" fill="#4F351E"/>
<path d="M181.862 56.084C181.125 56.084 180.439 55.9627 179.804 55.72C179.179 55.468 178.633 55.118 178.166 54.67C177.709 54.2127 177.35 53.6853 177.088 53.088C176.836 52.4813 176.71 51.8187 176.71 51.1C176.71 50.3813 176.836 49.7233 177.088 49.126C177.35 48.5193 177.709 47.992 178.166 47.544C178.633 47.0867 179.179 46.7367 179.804 46.494C180.43 46.242 181.116 46.116 181.862 46.116C182.6 46.116 183.281 46.242 183.906 46.494C184.532 46.7367 185.073 47.082 185.53 47.53C185.997 47.978 186.356 48.5053 186.608 49.112C186.87 49.7187 187 50.3813 187 51.1C187 51.8187 186.87 52.4813 186.608 53.088C186.356 53.6947 185.997 54.222 185.53 54.67C185.073 55.118 184.532 55.468 183.906 55.72C183.281 55.9627 182.6 56.084 181.862 56.084ZM181.862 55.16C182.45 55.16 182.992 55.062 183.486 54.866C183.99 54.6607 184.424 54.376 184.788 54.012C185.162 53.6387 185.451 53.2093 185.656 52.724C185.862 52.2293 185.964 51.688 185.964 51.1C185.964 50.512 185.862 49.9753 185.656 49.49C185.451 48.9953 185.162 48.566 184.788 48.202C184.424 47.8287 183.99 47.544 183.486 47.348C182.992 47.1427 182.45 47.04 181.862 47.04C181.274 47.04 180.728 47.1427 180.224 47.348C179.72 47.544 179.282 47.8287 178.908 48.202C178.544 48.566 178.255 48.9953 178.04 49.49C177.835 49.9753 177.732 50.512 177.732 51.1C177.732 51.6787 177.835 52.2153 178.04 52.71C178.255 53.2047 178.544 53.6387 178.908 54.012C179.282 54.376 179.72 54.6607 180.224 54.866C180.728 55.062 181.274 55.16 181.862 55.16Z" fill="#4F351E"/>
<path d="M187.618 56L192.098 46.2H193.12L197.6 56H196.508L192.392 46.802H192.812L188.696 56H187.618ZM189.382 53.382L189.69 52.542H195.388L195.696 53.382H189.382Z" fill="#4F351E"/>
<path d="M199.221 56V46.2H200.257V55.104H205.745V56H199.221Z" fill="#4F351E"/>
</svg>
